<?xml version="1.0" encoding="UTF-8" standalone="no"?>
<svg
   xmlns:dc="http://purl.org/dc/elements/1.1/"
   xmlns:cc="http://creativecommons.org/ns#"
   xmlns:rdf="http://www.w3.org/1999/02/22-rdf-syntax-ns#"
   xmlns:svg="http://www.w3.org/2000/svg"
   xmlns="http://www.w3.org/2000/svg"
   xmlns:sodipodi="http://sodipodi.sourceforge.net/DTD/sodipodi-0.dtd"
   xmlns:inkscape="http://www.inkscape.org/namespaces/inkscape"
   width="334mm"
   height="364mm"
   viewBox="0 0 334 364"
   version="1.1"
   id="svg8"
   inkscape:version="1.0.1 (3bc2e813f5, 2020-09-07)"
   sodipodi:docname="snapmaker print sheet.svg">
  <defs
     id="defs2">
    <inkscape:path-effect
       effect="bspline"
       id="path-effect1513"
       is_visible="true"
       lpeversion="1"
       weight="33.333333"
       steps="2"
       helper_size="0"
       apply_no_weight="true"
       apply_with_weight="true"
       only_selected="false" />
    <inkscape:path-effect
       effect="bspline"
       id="path-effect1489"
       is_visible="true"
       lpeversion="1"
       weight="33.333333"
       steps="2"
       helper_size="0"
       apply_no_weight="true"
       apply_with_weight="true"
       only_selected="false" />
    <inkscape:path-effect
       effect="bspline"
       id="path-effect1481"
       is_visible="true"
       lpeversion="1"
       weight="33.333333"
       steps="2"
       helper_size="0"
       apply_no_weight="true"
       apply_with_weight="true"
       only_selected="false" />
    <inkscape:path-effect
       effect="bspline"
       id="path-effect1472"
       is_visible="true"
       lpeversion="1"
       weight="33.333333"
       steps="2"
       helper_size="0"
       apply_no_weight="true"
       apply_with_weight="true"
       only_selected="false" />
    <inkscape:path-effect
       effect="bspline"
       id="path-effect1463"
       is_visible="true"
       lpeversion="1"
       weight="33.333333"
       steps="2"
       helper_size="0"
       apply_no_weight="true"
       apply_with_weight="true"
       only_selected="false" />
    <inkscape:path-effect
       effect="bspline"
       id="path-effect1444"
       is_visible="true"
       lpeversion="1"
       weight="33.333333"
       steps="2"
       helper_size="0"
       apply_no_weight="true"
       apply_with_weight="true"
       only_selected="false" />
    <inkscape:path-effect
       effect="bspline"
       id="path-effect1436"
       is_visible="true"
       lpeversion="1"
       weight="33.333333"
       steps="2"
       helper_size="0"
       apply_no_weight="true"
       apply_with_weight="true"
       only_selected="false" />
    <inkscape:path-effect
       effect="bspline"
       id="path-effect1426"
       is_visible="true"
       lpeversion="1"
       weight="33.333333"
       steps="2"
       helper_size="0"
       apply_no_weight="true"
       apply_with_weight="true"
       only_selected="false" />
    <inkscape:path-effect
       effect="bspline"
       id="path-effect1417"
       is_visible="true"
       lpeversion="1"
       weight="33.333333"
       steps="2"
       helper_size="0"
       apply_no_weight="true"
       apply_with_weight="true"
       only_selected="false" />
    <inkscape:path-effect
       effect="bspline"
       id="path-effect1398"
       is_visible="true"
       lpeversion="1"
       weight="33.333333"
       steps="2"
       helper_size="0"
       apply_no_weight="true"
       apply_with_weight="true"
       only_selected="false" />
  </defs>
  <sodipodi:namedview
     id="base"
     pagecolor="#ffffff"
     bordercolor="#666666"
     borderopacity="1.0"
     inkscape:pageopacity="0.0"
     inkscape:pageshadow="2"
     inkscape:zoom="2.8284271"
     inkscape:cx="436.03787"
     inkscape:cy="1212.2706"
     inkscape:document-units="mm"
     inkscape:current-layer="layer1"
     inkscape:document-rotation="0"
     showgrid="false"
     showborder="true"
     inkscape:showpageshadow="false"
     inkscape:window-width="3440"
     inkscape:window-height="1377"
     inkscape:window-x="3832"
     inkscape:window-y="364"
     inkscape:window-maximized="1" />
  <metadata
     id="metadata5">
    <rdf:RDF>
      <cc:Work
         rdf:about="">
        <dc:format>image/svg+xml</dc:format>
        <dc:type
           rdf:resource="http://purl.org/dc/dcmitype/StillImage" />
        <dc:title></dc:title>
      </cc:Work>
    </rdf:RDF>
  </metadata>
  <g
     inkscape:label="Layer 1"
     inkscape:groupmode="layer"
     id="layer1">
    <rect
       style="fill:#1d191a;fill-opacity:1;fill-rule:evenodd;stroke-width:0.264583"
       id="rect10"
       width="334"
       height="364"
       x="0"
       y="0" />
    <rect
       style="fill:none;fill-opacity:1;stroke:#ffffff;stroke-width:0.264787;stroke-miterlimit:4;stroke-dasharray:none;stroke-opacity:1;stroke-linecap:round;stroke-linejoin:miter"
       id="rect835"
       width="319.7352"
       height="339.7352"
       x="7.1323938"
       y="12.132394" />
    <path
       style="fill:none;stroke:#ffffff;stroke-width:0.265;stroke-linecap:butt;stroke-linejoin:miter;stroke-miterlimit:4;stroke-dasharray:none;stroke-opacity:1"
       d="M 7,32 H 327"
       id="path837"
       sodipodi:nodetypes="cc" />
    <path
       style="fill:none;stroke:#ffffff;stroke-width:0.264999;stroke-linecap:butt;stroke-linejoin:miter;stroke-miterlimit:4;stroke-dasharray:none;stroke-opacity:1"
       d="M 7,82 H 327"
       id="path837-0"
       sodipodi:nodetypes="cc" />
    <path
       style="fill:none;stroke:#ffffff;stroke-width:0.264999;stroke-linecap:butt;stroke-linejoin:miter;stroke-miterlimit:4;stroke-dasharray:none;stroke-opacity:1"
       d="M 7,132 H 327"
       id="path837-0-1"
       sodipodi:nodetypes="cc" />
    <path
       style="fill:none;stroke:#ffffff;stroke-width:0.264999;stroke-linecap:butt;stroke-linejoin:miter;stroke-miterlimit:4;stroke-dasharray:none;stroke-opacity:1"
       d="m 7,182 320,0"
       id="path837-0-1-9"
       sodipodi:nodetypes="cc" />
    <path
       style="fill:none;stroke:#ffffff;stroke-width:0.264999;stroke-linecap:butt;stroke-linejoin:miter;stroke-miterlimit:4;stroke-dasharray:none;stroke-opacity:1"
       d="M 7,232 H 327"
       id="path837-0-1-9-5"
       sodipodi:nodetypes="cc" />
    <path
       style="fill:none;stroke:#ffffff;stroke-width:0.264999;stroke-linecap:butt;stroke-linejoin:miter;stroke-miterlimit:4;stroke-dasharray:none;stroke-opacity:1"
       d="M 7,282 H 327"
       id="path837-0-1-9-5-9"
       sodipodi:nodetypes="cc" />
    <path
       style="fill:none;stroke:#ffffff;stroke-width:0.225007;stroke-linecap:butt;stroke-linejoin:miter;stroke-miterlimit:4;stroke-dasharray:none;stroke-opacity:1"
       d="m 49.177593,331.96303 h 16.437075 m 17.238886,0 h 20.045206 m 17.2389,0 117.56546,0"
       id="path1343"
       sodipodi:nodetypes="cccccc" />
    <path
       style="fill:none;stroke:#ffffff;stroke-width:0.225007;stroke-linecap:butt;stroke-linejoin:miter;stroke-miterlimit:4;stroke-dasharray:none;stroke-opacity:1"
       d="m 7,331.96303 22.800552,0"
       id="path837-0-1-9-5-9-3"
       sodipodi:nodetypes="cc" />
    <path
       style="fill:none;stroke:#ffffff;stroke-width:0.264999;stroke-linecap:butt;stroke-linejoin:miter;stroke-miterlimit:4;stroke-dasharray:none;stroke-opacity:1"
       d="M 17,12 V 352"
       id="path837-0-1-9-5-9-3-6"
       sodipodi:nodetypes="cc" />
    <path
       style="fill:none;stroke:#ffffff;stroke-width:0.264999;stroke-linecap:butt;stroke-linejoin:miter;stroke-miterlimit:4;stroke-dasharray:none;stroke-opacity:1"
       d="M 67,12 V 330.2115 M 67,342 v 10"
       id="path837-0-1-9-5-9-3-6-4"
       sodipodi:nodetypes="cccc" />
    <path
       style="fill:none;stroke:#ffffff;stroke-width:0.264999;stroke-linecap:butt;stroke-linejoin:miter;stroke-miterlimit:4;stroke-dasharray:none;stroke-opacity:1"
       d="M 117,12 V 326.06882 M 117,342 l 0,10"
       id="path837-0-1-9-5-9-3-6-4-6"
       sodipodi:nodetypes="cccc" />
    <path
       style="fill:none;stroke:#ffffff;stroke-width:0.264999;stroke-linecap:butt;stroke-linejoin:miter;stroke-miterlimit:4;stroke-dasharray:none;stroke-opacity:1"
       d="M 167,12 V 352"
       id="path837-0-1-9-5-9-3-6-4-6-8"
       sodipodi:nodetypes="cc" />
    <path
       style="fill:none;stroke:#ffffff;stroke-width:0.264999;stroke-linecap:butt;stroke-linejoin:miter;stroke-miterlimit:4;stroke-dasharray:none;stroke-opacity:1"
       d="M 217,12 V 352"
       id="path837-0-1-9-5-9-3-6-4-6-8-8"
       sodipodi:nodetypes="cc" />
    <path
       style="fill:none;stroke:#ffffff;stroke-width:0.264999;stroke-linecap:butt;stroke-linejoin:miter;stroke-miterlimit:4;stroke-dasharray:none;stroke-opacity:1"
       d="m 267,12 0,315.24256"
       id="path837-0-1-9-5-9-3-6-4-6-8-8-1"
       sodipodi:nodetypes="cc" />
    <path
       style="fill:none;stroke:#ffffff;stroke-width:0.264999;stroke-linecap:butt;stroke-linejoin:miter;stroke-miterlimit:4;stroke-dasharray:none;stroke-opacity:1"
       d="M 317,12 V 352"
       id="path837-0-1-9-5-9-3-6-4-6-8-8-1-3"
       sodipodi:nodetypes="cc" />
    <g
       aria-label="
 340"
       id="text1063"
       style="font-style:normal;font-weight:normal;font-size:3.52778px;line-height:1.25;font-family:sans-serif;fill:#ffffff;fill-opacity:1;stroke:none;stroke-width:0.264583;image-rendering:auto">
      <path
         d="m 10.160635,15.307051 q 0.08268,0.07407 0.136081,0.186036 0.0534,0.111965 0.0534,0.289388 0,0.1757 -0.06373,0.322116 -0.06373,0.146417 -0.179145,0.254938 -0.1291914,0.120578 -0.3048914,0.179145 -0.1739774,0.05684 -0.3824058,0.05684 -0.2135961,0 -0.420302,-0.05168 -0.2067058,-0.04995 -0.3393421,-0.110243 v -0.360012 h 0.025838 q 0.1464167,0.09646 0.3445098,0.160197 0.1980931,0.06373 0.3824059,0.06373 0.1085205,0 0.2308215,-0.03617 0.122301,-0.03617 0.1980931,-0.106798 0.079237,-0.07579 0.1171333,-0.167087 0.039619,-0.0913 0.039619,-0.230821 0,-0.137804 -0.044786,-0.227377 -0.043064,-0.0913 -0.1205784,-0.142971 -0.077515,-0.0534 -0.1877578,-0.07235 -0.1102432,-0.02067 -0.2377118,-0.02067 H 9.2528515 v -0.285943 h 0.1205784 q 0.2618275,0 0.4168569,-0.108521 0.1567519,-0.110243 0.1567519,-0.320394 0,-0.09302 -0.039619,-0.161919 -0.039619,-0.07062 -0.1102432,-0.115411 -0.07407,-0.04479 -0.1584744,-0.06201 -0.084405,-0.01722 -0.191203,-0.01722 -0.1636421,0 -0.3479548,0.05857 -0.1843128,0.05857 -0.3479549,0.165365 h -0.017226 v -0.360013 q 0.122301,-0.06029 0.3255617,-0.110243 0.2049834,-0.05168 0.3961863,-0.05168 0.1877578,0 0.3307294,0.03445 0.1429715,0.03445 0.2583823,0.110243 0.124024,0.08268 0.187758,0.199815 0.06373,0.117134 0.06373,0.273886 0,0.213596 -0.151584,0.373793 -0.1498619,0.158474 -0.3548452,0.199815 v 0.02412 q 0.082682,0.01378 0.1894803,0.05857 0.1067979,0.04306 0.1808679,0.10852 z"
         style="font-size:3.52778px;fill:#ffffff;fill-opacity:1;stroke-width:0.264583"
         id="path1525" />
      <path
         d="M 12.687614,15.820371 H 12.30693 v 0.721748 h -0.330729 v -0.721748 h -1.228177 v -0.396186 l 1.241957,-1.446941 h 0.316949 v 1.567519 h 0.380684 z M 11.976201,15.544763 V 14.38721 l -0.993911,1.157553 z"
         style="font-size:3.52778px;fill:#ffffff;fill-opacity:1;stroke-width:0.264583"
         id="path1527" />
      <path
         d="m 14.868361,15.25882 q 0,0.690742 -0.217041,1.014581 -0.215319,0.322117 -0.670072,0.322117 -0.461643,0 -0.675239,-0.327284 -0.211874,-0.327285 -0.211874,-1.005969 0,-0.683852 0.215319,-1.009414 0.215319,-0.327284 0.671794,-0.327284 0.461643,0 0.673517,0.332452 0.213596,0.33073 0.213596,1.000801 z m -0.453031,0.782037 q 0.06029,-0.139526 0.08096,-0.327284 0.02239,-0.18948 0.02239,-0.454753 0,-0.261827 -0.02239,-0.454753 -0.02067,-0.192925 -0.08268,-0.327284 -0.06029,-0.132636 -0.165365,-0.199816 -0.103353,-0.06718 -0.266995,-0.06718 -0.16192,0 -0.268718,0.06718 -0.105075,0.06718 -0.167087,0.203261 -0.05857,0.127469 -0.08096,0.332452 -0.02067,0.204983 -0.02067,0.449585 0,0.268718 0.01895,0.449585 0.01895,0.180868 0.08096,0.32384 0.05684,0.134358 0.160197,0.204983 0.105075,0.07062 0.27733,0.07062 0.16192,0 0.268718,-0.06718 0.106798,-0.06718 0.165364,-0.203261 z"
         style="font-size:3.52778px;fill:#ffffff;fill-opacity:1;stroke-width:0.264583"
         id="path1529" />
    </g>
    <g
       aria-label="
 320"
       id="text1063-7"
       style="font-style:normal;font-weight:normal;font-size:3.52777px;line-height:1.25;font-family:sans-serif;fill:#ffffff;fill-opacity:1;stroke:none;stroke-width:0.264583">
      <path
         d="m 10.216064,35.293648 q 0.08268,0.07407 0.136081,0.186035 0.0534,0.111965 0.0534,0.289387 0,0.1757 -0.06374,0.322116 -0.06373,0.146416 -0.179144,0.254936 -0.129191,0.120578 -0.3048905,0.179145 -0.1739769,0.05684 -0.3824047,0.05684 -0.2135955,0 -0.4203008,-0.05168 -0.2067052,-0.04995 -0.3393411,-0.110243 V 36.06018 h 0.025838 q 0.1464163,0.09646 0.3445088,0.160197 0.1980926,0.06373 0.3824048,0.06373 0.1085203,0 0.2308209,-0.03617 0.1223006,-0.03617 0.1980925,-0.106797 0.079237,-0.07579 0.117133,-0.167087 0.03962,-0.09129 0.03962,-0.230821 0,-0.137804 -0.04479,-0.227376 -0.043063,-0.0913 -0.1205777,-0.142971 -0.077515,-0.0534 -0.1877573,-0.07235 -0.1102428,-0.02067 -0.237711,-0.02067 H 9.308283 v -0.285943 h 0.1205781 q 0.2618267,0 0.4168556,-0.10852 0.1567513,-0.110243 0.1567513,-0.320393 0,-0.09302 -0.039618,-0.161919 -0.039618,-0.07062 -0.1102428,-0.115411 -0.074069,-0.04479 -0.158474,-0.06201 -0.084405,-0.01723 -0.1912024,-0.01723 -0.1636417,0 -0.3479539,0.05857 -0.1843122,0.05857 -0.3479539,0.165364 h -0.017225 v -0.360012 q 0.1223006,-0.06029 0.3255608,-0.110242 0.2049827,-0.05168 0.3961851,-0.05168 0.1877573,0 0.3307284,0.03445 0.1429712,0.03445 0.2583814,0.110243 0.124023,0.08268 0.187758,0.199815 0.06373,0.117133 0.06373,0.273884 0,0.213596 -0.151584,0.373793 -0.149862,0.158474 -0.3548443,0.199815 v 0.02412 q 0.082682,0.01378 0.1894803,0.05857 0.106797,0.04306 0.180867,0.10852 z"
         style="font-size:3.52777px;fill:#ffffff;fill-opacity:1;stroke-width:0.264583"
         id="path1532" />
      <path
         d="M 12.684469,36.528712 H 10.948145 V 36.1687 q 0.180867,-0.155029 0.361734,-0.310058 0.18259,-0.155029 0.339341,-0.308335 0.330729,-0.320393 0.45303,-0.50815 0.1223,-0.18948 0.1223,-0.408243 0,-0.199815 -0.132636,-0.311781 -0.130913,-0.113688 -0.366902,-0.113688 -0.156751,0 -0.339341,0.05512 -0.182589,0.05512 -0.356566,0.168809 h -0.01723 v -0.361734 q 0.122301,-0.06029 0.325561,-0.110243 0.204983,-0.04995 0.396185,-0.04995 0.394463,0 0.618393,0.191203 0.223931,0.189479 0.223931,0.51504 0,0.146416 -0.0379,0.273885 -0.03617,0.125745 -0.10852,0.239433 -0.06718,0.106798 -0.158474,0.210151 -0.08957,0.103352 -0.218763,0.229098 -0.184312,0.180867 -0.380682,0.351399 -0.196371,0.168809 -0.366902,0.313503 h 1.379757 z"
         style="font-size:3.52777px;fill:#ffffff;fill-opacity:1;stroke-width:0.264583"
         id="path1534" />
      <path
         d="m 14.923776,35.245417 q 0,0.69074 -0.21704,1.014578 -0.215318,0.322116 -0.67007,0.322116 -0.461642,0 -0.675237,-0.327283 -0.211873,-0.327284 -0.211873,-1.005966 0,-0.68385 0.215318,-1.009411 0.215318,-0.327283 0.671792,-0.327283 0.461642,0 0.673515,0.332451 0.213595,0.330728 0.213595,1.000798 z m -0.453029,0.782035 q 0.06029,-0.139526 0.08096,-0.327284 0.02239,-0.189479 0.02239,-0.454751 0,-0.261827 -0.02239,-0.454752 -0.02067,-0.192925 -0.08268,-0.327283 -0.06029,-0.132636 -0.165364,-0.199815 -0.103353,-0.06718 -0.266995,-0.06718 -0.161919,0 -0.268717,0.06718 -0.105075,0.06718 -0.167086,0.20326 -0.05857,0.127468 -0.08096,0.332451 -0.02067,0.204983 -0.02067,0.449584 0,0.268717 0.01895,0.449584 0.01895,0.180867 0.08096,0.323838 0.05684,0.134359 0.160197,0.204983 0.105075,0.07062 0.277329,0.07062 0.161919,0 0.268717,-0.06718 0.106798,-0.06718 0.165364,-0.20326 z"
         style="font-size:3.52777px;fill:#ffffff;fill-opacity:1;stroke-width:0.264583"
         id="path1536" />
    </g>
    <g
       aria-label="
 270"
       id="text1063-5"
       style="font-style:normal;font-weight:normal;font-size:3.52777px;line-height:1.25;font-family:sans-serif;fill:#ffffff;fill-opacity:1;stroke:none;stroke-width:0.264583">
      <path
         d="M 10.441716,86.421576 H 8.7053917 v -0.360011 q 0.1808671,-0.155029 0.3617342,-0.310058 0.1825897,-0.155029 0.3393412,-0.308336 0.3307284,-0.320393 0.453029,-0.50815 0.1223006,-0.18948 0.1223006,-0.408243 0,-0.199815 -0.1326358,-0.311781 Q 9.7182475,84.10131 9.482259,84.10131 q -0.1567515,0 -0.3393412,0.05512 -0.1825896,0.05512 -0.3565666,0.168809 h -0.017225 v -0.361734 q 0.1223006,-0.06029 0.3255608,-0.110243 0.2049827,-0.04995 0.3961851,-0.04995 0.3944626,0 0.6183933,0.191203 0.223931,0.18948 0.223931,0.51504 0,0.146417 -0.0379,0.273885 -0.03617,0.125746 -0.108521,0.239434 -0.06718,0.106797 -0.158474,0.21015 -0.089572,0.103353 -0.2187627,0.229098 -0.1843122,0.180867 -0.3806822,0.351399 -0.19637,0.16881 -0.3669018,0.313503 h 1.3797577 z"
         style="font-size:3.52777px;fill:#ffffff;fill-opacity:1;stroke-width:0.264583"
         id="path1539" />
      <path
         d="m 12.691359,84.240836 -1.160995,2.18074 H 11.16174 l 1.235064,-2.263423 h -1.460718 v -0.301445 h 1.755273 z"
         style="font-size:3.52777px;fill:#ffffff;fill-opacity:1;stroke-width:0.264583"
         id="path1541" />
      <path
         d="m 14.923775,85.138281 q 0,0.69074 -0.21704,1.014578 -0.215318,0.322116 -0.67007,0.322116 -0.461642,0 -0.675237,-0.327283 -0.211873,-0.327284 -0.211873,-1.005966 0,-0.68385 0.215318,-1.009411 0.215318,-0.327283 0.671792,-0.327283 0.461642,0 0.673515,0.332451 0.213595,0.330728 0.213595,1.000798 z m -0.453029,0.782035 q 0.06029,-0.139526 0.08096,-0.327283 0.02239,-0.18948 0.02239,-0.454752 0,-0.261827 -0.02239,-0.454752 -0.02067,-0.192925 -0.08268,-0.327283 -0.06029,-0.132636 -0.165364,-0.199815 -0.103353,-0.06718 -0.266995,-0.06718 -0.161919,0 -0.268717,0.06718 -0.105075,0.06718 -0.167086,0.20326 -0.05857,0.127468 -0.08096,0.332451 -0.02067,0.204983 -0.02067,0.449584 0,0.268717 0.01895,0.449584 0.01895,0.180867 0.08096,0.323838 0.05684,0.134359 0.160197,0.204983 0.105075,0.07062 0.277329,0.07062 0.161919,0 0.268717,-0.06718 0.106798,-0.06718 0.165364,-0.20326 z"
         style="font-size:3.52777px;fill:#ffffff;fill-opacity:1;stroke-width:0.264583"
         id="path1543" />
    </g>
    <g
       aria-label="
 220"
       id="text1063-5-0"
       style="font-style:normal;font-weight:normal;font-size:3.52777px;line-height:1.25;font-family:sans-serif;fill:#ffffff;fill-opacity:1;stroke:none;stroke-width:0.264583">
      <path
         d="M 10.343964,136.52081 H 8.6076396 v -0.36001 q 0.1808671,-0.15503 0.3617342,-0.31006 0.1825897,-0.15503 0.3393412,-0.30833 0.3307284,-0.3204 0.453029,-0.50815 0.1223006,-0.18948 0.1223006,-0.40825 0,-0.19981 -0.1326358,-0.31178 -0.1309134,-0.11368 -0.3669019,-0.11368 -0.1567515,0 -0.3393412,0.0551 -0.1825896,0.0551 -0.3565666,0.16881 h -0.017225 v -0.36174 q 0.1223006,-0.0603 0.3255608,-0.11024 0.2049827,-0.05 0.3961851,-0.05 0.3944626,0 0.6183934,0.19121 0.223931,0.18948 0.223931,0.51504 0,0.14641 -0.0379,0.27388 -0.03617,0.12575 -0.108521,0.23944 -0.06718,0.10679 -0.1584737,0.21015 -0.089572,0.10335 -0.2187631,0.22909 -0.1843122,0.18087 -0.3806822,0.3514 -0.19637,0.16881 -0.3669018,0.31351 h 1.3797578 z"
         style="font-size:3.52777px;fill:#ffffff;fill-opacity:1;stroke-width:0.264583"
         id="path1546" />
      <path
         d="m 12.586716,136.52081 h -1.736324 v -0.36001 q 0.180867,-0.15503 0.361734,-0.31006 0.18259,-0.15503 0.339341,-0.30833 0.330729,-0.3204 0.453029,-0.50815 0.122301,-0.18948 0.122301,-0.40825 0,-0.19981 -0.132636,-0.31178 -0.130913,-0.11368 -0.366902,-0.11368 -0.156751,0 -0.339341,0.0551 -0.182589,0.0551 -0.356566,0.16881 h -0.01723 v -0.36174 q 0.122301,-0.0603 0.325561,-0.11024 0.204983,-0.05 0.396185,-0.05 0.394463,0 0.618393,0.19121 0.223931,0.18948 0.223931,0.51504 0,0.14641 -0.0379,0.27388 -0.03617,0.12575 -0.10852,0.23944 -0.06718,0.10679 -0.158474,0.21015 -0.08957,0.10335 -0.218763,0.22909 -0.184313,0.18087 -0.380683,0.3514 -0.19637,0.16881 -0.366901,0.31351 h 1.379757 z"
         style="font-size:3.52777px;fill:#ffffff;fill-opacity:1;stroke-width:0.264583"
         id="path1548" />
      <path
         d="m 14.826023,135.23752 q 0,0.69074 -0.21704,1.01457 -0.215318,0.32212 -0.67007,0.32212 -0.461642,0 -0.675237,-0.32728 -0.211873,-0.32729 -0.211873,-1.00597 0,-0.68385 0.215318,-1.00941 0.215318,-0.32728 0.671792,-0.32728 0.461642,0 0.673515,0.33245 0.213595,0.33073 0.213595,1.0008 z m -0.453029,0.78203 q 0.06029,-0.13952 0.08096,-0.32728 0.02239,-0.18948 0.02239,-0.45475 0,-0.26183 -0.02239,-0.45476 -0.02067,-0.19292 -0.08268,-0.32728 -0.06029,-0.13263 -0.165365,-0.19981 -0.103352,-0.0672 -0.266994,-0.0672 -0.161919,0 -0.268717,0.0672 -0.105075,0.0672 -0.167086,0.20326 -0.05857,0.12746 -0.08096,0.33245 -0.02067,0.20498 -0.02067,0.44958 0,0.26872 0.01895,0.44959 0.01895,0.18086 0.08096,0.32383 0.05684,0.13436 0.160197,0.20499 0.105075,0.0706 0.277329,0.0706 0.161919,0 0.268717,-0.0672 0.106798,-0.0672 0.165364,-0.20326 z"
         style="font-size:3.52777px;fill:#ffffff;fill-opacity:1;stroke-width:0.264583"
         id="path1550" />
    </g>
    <g
       aria-label="
 170"
       id="text1063-5-0-5"
       style="font-style:normal;font-weight:normal;font-size:3.52777px;line-height:1.25;font-family:sans-serif;fill:#ffffff;fill-opacity:1;stroke:none;stroke-width:0.264583">
      <path
         d="M 10.230956,186.43339 H 8.8425854 v -0.26182 H 9.376574 v -1.7191 H 8.8425854 v -0.23427 q 0.1085202,0 0.2325434,-0.0172 0.1240232,-0.0189 0.1877573,-0.0534 0.079237,-0.0431 0.1240232,-0.10852 0.046509,-0.0672 0.053399,-0.17915 h 0.2669943 v 2.31166 h 0.5236536 z"
         style="font-size:3.52777px;fill:#ffffff;fill-opacity:1;stroke-width:0.264583"
         id="path1553" />
      <path
         d="m 12.627015,184.25265 -1.160995,2.18074 h -0.368624 l 1.235064,-2.26342 h -1.460718 v -0.30144 h 1.755273 z"
         style="font-size:3.52777px;fill:#ffffff;fill-opacity:1;stroke-width:0.264583"
         id="path1555" />
      <path
         d="m 14.859431,185.1501 q 0,0.69074 -0.21704,1.01458 -0.215318,0.32211 -0.67007,0.32211 -0.461641,0 -0.675237,-0.32728 -0.211873,-0.32728 -0.211873,-1.00597 0,-0.68385 0.215318,-1.00941 0.215318,-0.32728 0.671792,-0.32728 0.461642,0 0.673515,0.33245 0.213595,0.33073 0.213595,1.0008 z m -0.453029,0.78203 q 0.06029,-0.13952 0.08096,-0.32728 0.02239,-0.18948 0.02239,-0.45475 0,-0.26183 -0.02239,-0.45475 -0.02067,-0.19293 -0.08268,-0.32729 -0.06029,-0.13263 -0.165364,-0.19981 -0.103353,-0.0672 -0.266995,-0.0672 -0.161919,0 -0.268717,0.0672 -0.105075,0.0672 -0.167086,0.20326 -0.05857,0.12747 -0.08096,0.33245 -0.02067,0.20498 -0.02067,0.44958 0,0.26872 0.01895,0.44959 0.01895,0.18087 0.08096,0.32384 0.05684,0.13435 0.160197,0.20498 0.105075,0.0706 0.277329,0.0706 0.161919,0 0.268717,-0.0672 0.106798,-0.0672 0.165364,-0.20326 z"
         style="font-size:3.52777px;fill:#ffffff;fill-opacity:1;stroke-width:0.264583"
         id="path1557" />
    </g>
    <g
       aria-label="
 120"
       id="text1063-5-0-1"
       style="font-style:normal;font-weight:normal;font-size:3.52777px;line-height:1.25;font-family:sans-serif;fill:#ffffff;fill-opacity:1;stroke:none;stroke-width:0.264583">
      <path
         d="M 10.264365,236.44621 H 8.8759945 v -0.26183 h 0.5339886 v -1.71909 H 8.8759945 v -0.23427 q 0.1085203,0 0.2325434,-0.0172 0.1240232,-0.0189 0.1877573,-0.0534 0.079237,-0.0431 0.1240232,-0.10852 0.046509,-0.0672 0.053399,-0.17915 h 0.2669944 v 2.31165 h 0.5236534 z"
         style="font-size:3.52777px;fill:#ffffff;fill-opacity:1;stroke-width:0.264583"
         id="path1560" />
      <path
         d="m 12.653534,236.44621 h -1.736325 v -0.36001 q 0.180867,-0.15503 0.361735,-0.31006 0.182589,-0.15503 0.339341,-0.30833 0.330728,-0.3204 0.453029,-0.50815 0.1223,-0.18948 0.1223,-0.40825 0,-0.19981 -0.132636,-0.31178 -0.130913,-0.11369 -0.366901,-0.11369 -0.156752,0 -0.339342,0.0551 -0.182589,0.0551 -0.356566,0.16881 h -0.01723 v -0.36174 q 0.122301,-0.0603 0.325561,-0.11024 0.204983,-0.05 0.396185,-0.05 0.394463,0 0.618394,0.19121 0.22393,0.18948 0.22393,0.51504 0,0.14641 -0.0379,0.27388 -0.03617,0.12575 -0.10852,0.23944 -0.06718,0.10679 -0.158474,0.21015 -0.08957,0.10335 -0.218763,0.22909 -0.184312,0.18087 -0.380682,0.3514 -0.19637,0.16881 -0.366902,0.31351 h 1.379758 z"
         style="font-size:3.52777px;fill:#ffffff;fill-opacity:1;stroke-width:0.264583"
         id="path1562" />
      <path
         d="m 14.892841,235.16292 q 0,0.69074 -0.217041,1.01457 -0.215318,0.32212 -0.67007,0.32212 -0.461641,0 -0.675237,-0.32728 -0.211873,-0.32729 -0.211873,-1.00597 0,-0.68385 0.215318,-1.00941 0.215318,-0.32728 0.671792,-0.32728 0.461642,0 0.673515,0.33245 0.213596,0.33073 0.213596,1.0008 z m -0.453029,0.78203 q 0.06029,-0.13952 0.08096,-0.32728 0.02239,-0.18948 0.02239,-0.45475 0,-0.26183 -0.02239,-0.45476 -0.02067,-0.19292 -0.08268,-0.32728 -0.06029,-0.13263 -0.165364,-0.19981 -0.103353,-0.0672 -0.266995,-0.0672 -0.161919,0 -0.268716,0.0672 -0.105076,0.0672 -0.167087,0.20326 -0.05857,0.12746 -0.08096,0.33245 -0.02067,0.20498 -0.02067,0.44958 0,0.26872 0.01895,0.44959 0.01895,0.18086 0.08096,0.32383 0.05684,0.13436 0.160197,0.20499 0.105075,0.0706 0.277329,0.0706 0.16192,0 0.268717,-0.0672 0.106798,-0.0672 0.165365,-0.20326 z"
         style="font-size:3.52777px;fill:#ffffff;fill-opacity:1;stroke-width:0.264583"
         id="path1564" />
    </g>
    <g
       aria-label="
 70"
       id="text1063-5-0-1-8"
       style="font-style:normal;font-weight:normal;font-size:3.52777px;line-height:1.25;font-family:sans-serif;fill:#ffffff;fill-opacity:1;stroke:none;stroke-width:0.264583">
      <path
         d="m 10.384263,284.24484 -1.1609949,2.18074 H 8.8546437 l 1.2350643,-2.26342 H 8.6289904 v -0.30145 h 1.7552726 z"
         style="font-size:3.52777px;fill:#ffffff;fill-opacity:1;stroke-width:0.264583"
         id="path1567" />
      <path
         d="m 12.61668,285.14229 q 0,0.69074 -0.217041,1.01457 -0.215318,0.32212 -0.670069,0.32212 -0.461642,0 -0.675238,-0.32728 -0.211872,-0.32729 -0.211872,-1.00597 0,-0.68385 0.215318,-1.00941 0.215318,-0.32728 0.671792,-0.32728 0.461642,0 0.673514,0.33245 0.213596,0.33073 0.213596,1.0008 z m -0.453029,0.78203 q 0.06029,-0.13952 0.08096,-0.32728 0.02239,-0.18948 0.02239,-0.45475 0,-0.26183 -0.02239,-0.45476 -0.02067,-0.19292 -0.08268,-0.32728 -0.06029,-0.13263 -0.165364,-0.19981 -0.103353,-0.0672 -0.266994,-0.0672 -0.161919,0 -0.268717,0.0672 -0.105075,0.0672 -0.167087,0.20326 -0.05857,0.12746 -0.08096,0.33245 -0.02067,0.20498 -0.02067,0.44958 0,0.26872 0.01895,0.44959 0.01895,0.18086 0.08096,0.32383 0.05684,0.13436 0.160196,0.20499 0.105075,0.0706 0.27733,0.0706 0.161919,0 0.268717,-0.0672 0.106797,-0.0672 0.165364,-0.20326 z"
         style="font-size:3.52777px;fill:#ffffff;fill-opacity:1;stroke-width:0.264583"
         id="path1569" />
    </g>
    <g
       aria-label="
 20"
       id="text1063-5-0-1-1"
       style="font-style:normal;font-weight:normal;font-size:3.52777px;line-height:1.25;font-family:sans-serif;fill:#ffffff;fill-opacity:1;stroke:none;stroke-width:0.264583">
      <path
         d="M 10.377373,336.40501 H 8.6410482 V 336.045 q 0.1808671,-0.15503 0.3617342,-0.31006 0.1825897,-0.15503 0.3393412,-0.30833 0.3307284,-0.3204 0.4530291,-0.50815 0.1223006,-0.18948 0.1223006,-0.40825 0,-0.19981 -0.1326359,-0.31178 -0.1309133,-0.11368 -0.3669019,-0.11368 -0.1567515,0 -0.3393411,0.0551 -0.1825897,0.0551 -0.3565666,0.16881 h -0.017226 v -0.36174 q 0.1223007,-0.0603 0.3255608,-0.11024 0.2049828,-0.05 0.3961852,-0.05 0.3944625,0 0.6183937,0.1912 0.22393,0.18948 0.22393,0.51504 0,0.14642 -0.0379,0.27388 -0.03617,0.12575 -0.10852,0.23944 -0.06718,0.10679 -0.158474,0.21015 -0.089572,0.10335 -0.2187631,0.2291 -0.1843122,0.18086 -0.3806822,0.35139 -0.19637,0.16881 -0.3669019,0.31351 h 1.3797582 z"
         style="font-size:3.52777px;fill:#ffffff;fill-opacity:1;stroke-width:0.264583"
         id="path1572" />
      <path
         d="m 12.61668,335.12172 q 0,0.69074 -0.217041,1.01458 -0.215318,0.32211 -0.670069,0.32211 -0.461642,0 -0.675238,-0.32728 -0.211872,-0.32728 -0.211872,-1.00597 0,-0.68385 0.215318,-1.00941 0.215318,-0.32728 0.671792,-0.32728 0.461642,0 0.673514,0.33245 0.213596,0.33073 0.213596,1.0008 z m -0.453029,0.78203 q 0.06029,-0.13952 0.08096,-0.32728 0.02239,-0.18948 0.02239,-0.45475 0,-0.26183 -0.02239,-0.45475 -0.02067,-0.19293 -0.08268,-0.32729 -0.06029,-0.13263 -0.165364,-0.19981 -0.103353,-0.0672 -0.266994,-0.0672 -0.161919,0 -0.268717,0.0672 -0.105075,0.0672 -0.167087,0.20326 -0.05857,0.12747 -0.08096,0.33245 -0.02067,0.20498 -0.02067,0.44958 0,0.26872 0.01895,0.44959 0.01895,0.18086 0.08096,0.32383 0.05684,0.13436 0.160196,0.20499 0.105075,0.0706 0.27733,0.0706 0.161919,0 0.268717,-0.0672 0.106797,-0.0672 0.165364,-0.20326 z"
         style="font-size:3.52777px;fill:#ffffff;fill-opacity:1;stroke-width:0.264583"
         id="path1574" />
    </g>
    <g
       aria-label="
 10"
       id="text1063-5-0-1-0"
       style="font-style:normal;font-weight:normal;font-size:3.52777px;line-height:1.25;font-family:sans-serif;fill:#ffffff;fill-opacity:1;stroke:none;stroke-width:0.264583">
      <path
         d="m 16.858204,356.27171 h -1.388371 v -0.26182 h 0.533989 v -1.7191 h -0.533989 v -0.23427 q 0.10852,0 0.232544,-0.0172 0.124023,-0.019 0.187757,-0.0534 0.07924,-0.0431 0.124023,-0.10852 0.04651,-0.0672 0.0534,-0.17915 h 0.266994 v 2.31166 h 0.523654 z"
         style="font-size:3.52777px;fill:#ffffff;fill-opacity:1;stroke-width:0.264583"
         id="path1588" />
      <path
         d="m 19.243927,354.98842 q 0,0.69074 -0.21704,1.01458 -0.215318,0.32211 -0.67007,0.32211 -0.461642,0 -0.675237,-0.32728 -0.211873,-0.32729 -0.211873,-1.00597 0,-0.68385 0.215318,-1.00941 0.215318,-0.32728 0.671792,-0.32728 0.461642,0 0.673515,0.33245 0.213595,0.33073 0.213595,1.0008 z m -0.453029,0.78203 q 0.06029,-0.13952 0.08096,-0.32728 0.02239,-0.18948 0.02239,-0.45475 0,-0.26183 -0.02239,-0.45475 -0.02067,-0.19293 -0.08268,-0.32729 -0.06029,-0.13263 -0.165365,-0.19981 -0.103352,-0.0672 -0.266994,-0.0672 -0.161919,0 -0.268717,0.0672 -0.105075,0.0672 -0.167087,0.20326 -0.05857,0.12747 -0.08096,0.33245 -0.02067,0.20498 -0.02067,0.44958 0,0.26872 0.01895,0.44959 0.01895,0.18086 0.08096,0.32383 0.05684,0.13436 0.160196,0.20499 0.105076,0.0706 0.27733,0.0706 0.161919,0 0.268717,-0.0672 0.106798,-0.0672 0.165364,-0.20326 z"
         style="font-size:3.52777px;fill:#ffffff;fill-opacity:1;stroke-width:0.264583"
         id="path1590" />
    </g>
    <g
       aria-label="
 60"
       id="text1063-5-0-1-3"
       style="font-style:normal;font-weight:normal;font-size:3.52777px;line-height:1.25;font-family:sans-serif;fill:#ffffff;fill-opacity:1;stroke:none;stroke-width:0.264583">
      <path
         d="m 67.128795,355.44094 q 0,0.39102 -0.258382,0.63907 -0.256659,0.24632 -0.630451,0.24632 -0.18948,0 -0.344509,-0.0586 -0.155029,-0.0586 -0.273884,-0.17398 -0.148139,-0.14297 -0.229099,-0.37896 -0.07924,-0.23599 -0.07924,-0.56844 0,-0.34106 0.07235,-0.60461 0.07407,-0.26355 0.234266,-0.46854 0.151584,-0.19464 0.391018,-0.30316 0.239433,-0.11025 0.558104,-0.11025 0.10163,0 0.170532,0.009 0.0689,0.009 0.139526,0.031 v 0.32901 H 66.8618 q -0.04823,-0.0258 -0.146416,-0.0482 -0.09646,-0.0241 -0.198092,-0.0241 -0.370347,0 -0.590833,0.23254 -0.220486,0.23083 -0.256659,0.62529 0.144694,-0.0879 0.28422,-0.13264 0.141248,-0.0465 0.325561,-0.0465 0.163641,0 0.287664,0.031 0.125746,0.0293 0.256659,0.12058 0.151584,0.10507 0.227376,0.26527 0.07751,0.1602 0.07751,0.38929 z m -0.349677,0.0138 q 0,-0.16019 -0.04823,-0.26527 -0.04651,-0.10507 -0.155029,-0.18259 -0.07924,-0.0551 -0.175699,-0.0723 -0.09646,-0.0172 -0.201538,-0.0172 -0.146416,0 -0.272162,0.0344 -0.125746,0.0345 -0.258382,0.1068 -0.0034,0.0379 -0.0052,0.0741 -0.0017,0.0344 -0.0017,0.0879 0,0.27216 0.05512,0.43063 0.05684,0.15676 0.155029,0.24805 0.07924,0.0758 0.170531,0.11197 0.09302,0.0345 0.201538,0.0345 0.249769,0 0.39274,-0.15159 0.142971,-0.1533 0.142971,-0.43925 z"
         style="font-size:3.52777px;fill:#ffffff;fill-opacity:1;stroke-width:0.264583"
         id="path1593" />
      <path
         d="m 69.330206,354.98964 q 0,0.69074 -0.21704,1.01458 -0.215318,0.32211 -0.67007,0.32211 -0.461642,0 -0.675237,-0.32728 -0.211873,-0.32729 -0.211873,-1.00597 0,-0.68385 0.215318,-1.00941 0.215318,-0.32728 0.671792,-0.32728 0.461642,0 0.673515,0.33245 0.213595,0.33073 0.213595,1.0008 z m -0.453029,0.78203 q 0.06029,-0.13952 0.08096,-0.32728 0.02239,-0.18948 0.02239,-0.45475 0,-0.26183 -0.02239,-0.45475 -0.02067,-0.19293 -0.08268,-0.32729 -0.06029,-0.13263 -0.165365,-0.19981 -0.103352,-0.0672 -0.266994,-0.0672 -0.161919,0 -0.268717,0.0672 -0.105075,0.0672 -0.167087,0.20326 -0.05857,0.12747 -0.08096,0.33245 -0.02067,0.20498 -0.02067,0.44958 0,0.26872 0.01895,0.44959 0.01895,0.18086 0.08096,0.32383 0.05684,0.13436 0.160196,0.20499 0.105076,0.0706 0.27733,0.0706 0.161919,0 0.268717,-0.0672 0.106798,-0.0672 0.165364,-0.20326 z"
         style="font-size:3.52777px;fill:#ffffff;fill-opacity:1;stroke-width:0.264583"
         id="path1595" />
    </g>
    <g
       aria-label="
 110"
       id="text1063-5-0-1-08"
       style="font-style:normal;font-weight:normal;font-size:3.52777px;line-height:1.25;font-family:sans-serif;fill:#ffffff;fill-opacity:1;stroke:none;stroke-width:0.264583">
      <path
         d="m 115.53803,356.27296 h -1.38837 v -0.26182 h 0.53398 v -1.7191 h -0.53398 v -0.23427 q 0.10852,0 0.23254,-0.0172 0.12402,-0.019 0.18776,-0.0534 0.0792,-0.0431 0.12402,-0.10852 0.0465,-0.0672 0.0534,-0.17915 h 0.26699 v 2.31166 h 0.52366 z"
         style="font-size:3.52777px;fill:#ffffff;fill-opacity:1;stroke-width:0.264583"
         id="path1598" />
      <path
         d="m 117.78078,356.27296 h -1.38837 v -0.26182 h 0.53399 v -1.7191 h -0.53399 v -0.23427 q 0.10852,0 0.23254,-0.0172 0.12403,-0.019 0.18776,-0.0534 0.0792,-0.0431 0.12402,-0.10852 0.0465,-0.0672 0.0534,-0.17915 h 0.267 v 2.31166 h 0.52365 z"
         style="font-size:3.52777px;fill:#ffffff;fill-opacity:1;stroke-width:0.264583"
         id="path1600" />
      <path
         d="m 120.1665,354.98967 q 0,0.69074 -0.21704,1.01458 -0.21532,0.32211 -0.67007,0.32211 -0.46164,0 -0.67524,-0.32728 -0.21187,-0.32728 -0.21187,-1.00597 0,-0.68385 0.21532,-1.00941 0.21532,-0.32728 0.67179,-0.32728 0.46164,0 0.67352,0.33245 0.21359,0.33073 0.21359,1.0008 z m -0.45303,0.78203 q 0.0603,-0.13952 0.081,-0.32728 0.0224,-0.18948 0.0224,-0.45475 0,-0.26183 -0.0224,-0.45475 -0.0207,-0.19293 -0.0827,-0.32729 -0.0603,-0.13263 -0.16536,-0.19981 -0.10336,-0.0672 -0.267,-0.0672 -0.16192,0 -0.26871,0.0672 -0.10508,0.0672 -0.16709,0.20326 -0.0586,0.12747 -0.081,0.33245 -0.0207,0.20498 -0.0207,0.44958 0,0.26872 0.0189,0.44959 0.0189,0.18086 0.081,0.32384 0.0568,0.13435 0.16019,0.20498 0.10508,0.0706 0.27733,0.0706 0.16192,0 0.26872,-0.0672 0.1068,-0.0672 0.16536,-0.20326 z"
         style="font-size:3.52777px;fill:#ffffff;fill-opacity:1;stroke-width:0.264583"
         id="path1602" />
    </g>
    <g
       aria-label="
 160"
       id="text1063-5-0-1-4"
       style="font-style:normal;font-weight:normal;font-size:3.52777px;line-height:1.25;font-family:sans-serif;fill:#ffffff;fill-opacity:1;stroke:none;stroke-width:0.264583">
      <path
         d="m 165.59627,356.27293 h -1.38837 v -0.26182 h 0.53399 v -1.7191 h -0.53399 v -0.23427 q 0.10852,0 0.23254,-0.0172 0.12403,-0.019 0.18776,-0.0534 0.0792,-0.0431 0.12402,-0.10852 0.0465,-0.0672 0.0534,-0.17915 h 0.267 v 2.31166 h 0.52365 z"
         style="font-size:3.52777px;fill:#ffffff;fill-opacity:1;stroke-width:0.264583"
         id="path1605" />
      <path
         d="m 168.02333,355.44094 q 0,0.39102 -0.25838,0.63907 -0.25666,0.24632 -0.63045,0.24632 -0.18948,0 -0.34451,-0.0586 -0.15503,-0.0586 -0.27388,-0.17398 -0.14814,-0.14297 -0.2291,-0.37896 -0.0792,-0.23599 -0.0792,-0.56844 0,-0.34106 0.0724,-0.60461 0.0741,-0.26355 0.23427,-0.46854 0.15158,-0.19464 0.39101,-0.30316 0.23944,-0.11025 0.55811,-0.11025 0.10163,0 0.17053,0.009 0.0689,0.009 0.13953,0.031 v 0.32901 h -0.0172 q -0.0482,-0.0258 -0.14642,-0.0482 -0.0965,-0.0241 -0.19809,-0.0241 -0.37035,0 -0.59083,0.23254 -0.22049,0.23083 -0.25666,0.62529 0.14469,-0.0879 0.28422,-0.13264 0.14125,-0.0465 0.32556,-0.0465 0.16364,0 0.28766,0.031 0.12575,0.0293 0.25666,0.12058 0.15159,0.10507 0.22738,0.26527 0.0775,0.1602 0.0775,0.38929 z m -0.34967,0.0138 q 0,-0.16019 -0.0482,-0.26527 -0.0465,-0.10507 -0.15503,-0.18259 -0.0792,-0.0551 -0.1757,-0.0723 -0.0965,-0.0172 -0.20154,-0.0172 -0.14642,0 -0.27216,0.0344 -0.12575,0.0345 -0.25838,0.1068 -0.003,0.0379 -0.005,0.0741 -0.002,0.0344 -0.002,0.0879 0,0.27216 0.0551,0.43063 0.0568,0.15676 0.15503,0.24805 0.0792,0.0758 0.17053,0.11197 0.093,0.0345 0.20154,0.0345 0.24977,0 0.39274,-0.15159 0.14297,-0.1533 0.14297,-0.43925 z"
         style="font-size:3.52777px;fill:#ffffff;fill-opacity:1;stroke-width:0.264583"
         id="path1607" />
      <path
         d="m 170.22474,354.98964 q 0,0.69074 -0.21704,1.01458 -0.21531,0.32211 -0.67007,0.32211 -0.46164,0 -0.67523,-0.32728 -0.21188,-0.32729 -0.21188,-1.00597 0,-0.68385 0.21532,-1.00941 0.21532,-0.32728 0.67179,-0.32728 0.46165,0 0.67352,0.33245 0.21359,0.33073 0.21359,1.0008 z m -0.45302,0.78203 q 0.0603,-0.13952 0.081,-0.32728 0.0224,-0.18948 0.0224,-0.45475 0,-0.26183 -0.0224,-0.45475 -0.0207,-0.19293 -0.0827,-0.32729 -0.0603,-0.13263 -0.16536,-0.19981 -0.10335,-0.0672 -0.267,-0.0672 -0.16191,0 -0.26871,0.0672 -0.10508,0.0672 -0.16709,0.20326 -0.0586,0.12747 -0.081,0.33245 -0.0207,0.20498 -0.0207,0.44958 0,0.26872 0.019,0.44959 0.0189,0.18086 0.081,0.32383 0.0568,0.13436 0.1602,0.20499 0.10507,0.0706 0.27732,0.0706 0.16192,0 0.26872,-0.0672 0.1068,-0.0672 0.16537,-0.20326 z"
         style="font-size:3.52777px;fill:#ffffff;fill-opacity:1;stroke-width:0.264583"
         id="path1609" />
    </g>
    <g
       aria-label="
 210"
       id="text1063-5-0-1-9"
       style="font-style:normal;font-weight:normal;font-size:3.52777px;line-height:1.25;font-family:sans-serif;fill:#ffffff;fill-opacity:1;stroke:none;stroke-width:0.264583">
      <path
         d="m 215.77728,356.24934 h -1.73633 v -0.36001 q 0.18087,-0.15503 0.36174,-0.31006 0.18259,-0.15503 0.33934,-0.30833 0.33073,-0.3204 0.45303,-0.50815 0.1223,-0.18948 0.1223,-0.40825 0,-0.19981 -0.13264,-0.31178 -0.13091,-0.11368 -0.3669,-0.11368 -0.15675,0 -0.33934,0.0551 -0.18259,0.0551 -0.35657,0.16881 h -0.0172 v -0.36174 q 0.1223,-0.0603 0.32556,-0.11024 0.20498,-0.05 0.39618,-0.05 0.39447,0 0.6184,0.1912 0.22393,0.18948 0.22393,0.51504 0,0.14642 -0.0379,0.27388 -0.0362,0.12575 -0.10852,0.23944 -0.0672,0.10679 -0.15847,0.21015 -0.0896,0.10335 -0.21877,0.2291 -0.18431,0.18086 -0.38068,0.35139 -0.19637,0.16881 -0.3669,0.31351 h 1.37976 z"
         style="font-size:3.52777px;fill:#ffffff;fill-opacity:1;stroke-width:0.264583"
         id="path1612" />
      <path
         d="m 217.87361,356.24934 h -1.38837 v -0.26182 h 0.53399 v -1.7191 h -0.53399 v -0.23427 q 0.10852,0 0.23255,-0.0172 0.12402,-0.019 0.18775,-0.0534 0.0792,-0.0431 0.12403,-0.10852 0.0465,-0.0672 0.0534,-0.17915 h 0.26699 v 2.31166 h 0.52365 z"
         style="font-size:3.52777px;fill:#ffffff;fill-opacity:1;stroke-width:0.264583"
         id="path1614" />
      <path
         d="m 220.25934,354.96605 q 0,0.69074 -0.21704,1.01458 -0.21532,0.32211 -0.67007,0.32211 -0.46165,0 -0.67524,-0.32728 -0.21187,-0.32729 -0.21187,-1.00597 0,-0.68385 0.21531,-1.00941 0.21532,-0.32728 0.6718,-0.32728 0.46164,0 0.67351,0.33245 0.2136,0.33073 0.2136,1.0008 z m -0.45303,0.78203 q 0.0603,-0.13952 0.081,-0.32728 0.0224,-0.18948 0.0224,-0.45475 0,-0.26183 -0.0224,-0.45475 -0.0207,-0.19293 -0.0827,-0.32729 -0.0603,-0.13263 -0.16537,-0.19981 -0.10335,-0.0672 -0.26699,-0.0672 -0.16192,0 -0.26872,0.0672 -0.10508,0.0672 -0.16709,0.20326 -0.0586,0.12747 -0.081,0.33245 -0.0207,0.20498 -0.0207,0.44958 0,0.26872 0.0189,0.44959 0.019,0.18086 0.081,0.32383 0.0568,0.13436 0.1602,0.20499 0.10507,0.0706 0.27733,0.0706 0.16192,0 0.26871,-0.0672 0.1068,-0.0672 0.16537,-0.20326 z"
         style="font-size:3.52777px;fill:#ffffff;fill-opacity:1;stroke-width:0.264583"
         id="path1616" />
    </g>
    <g
       aria-label="
 260"
       id="text1063-5-0-1-98"
       style="font-style:normal;font-weight:normal;font-size:3.52777px;line-height:1.25;font-family:sans-serif;fill:#ffffff;fill-opacity:1;stroke:none;stroke-width:0.264583">
      <path
         d="m 265.67015,356.24934 h -1.73633 v -0.36001 q 0.18087,-0.15503 0.36174,-0.31006 0.18258,-0.15503 0.33934,-0.30833 0.33072,-0.3204 0.45303,-0.50815 0.1223,-0.18948 0.1223,-0.40825 0,-0.19981 -0.13264,-0.31178 -0.13091,-0.11368 -0.3669,-0.11368 -0.15675,0 -0.33934,0.0551 -0.18259,0.0551 -0.35657,0.16881 h -0.0172 v -0.36174 q 0.1223,-0.0603 0.32556,-0.11024 0.20498,-0.05 0.39618,-0.05 0.39446,0 0.61839,0.1912 0.22394,0.18948 0.22394,0.51504 0,0.14642 -0.0379,0.27388 -0.0362,0.12575 -0.10852,0.23944 -0.0672,0.10679 -0.15848,0.21015 -0.0896,0.10335 -0.21876,0.2291 -0.18431,0.18086 -0.38068,0.35139 -0.19637,0.16881 -0.3669,0.31351 h 1.37976 z"
         style="font-size:3.52777px;fill:#ffffff;fill-opacity:1;stroke-width:0.264583"
         id="path1619" />
      <path
         d="m 267.95079,355.41735 q 0,0.39102 -0.25838,0.63907 -0.25666,0.24632 -0.63045,0.24632 -0.18948,0 -0.34451,-0.0586 -0.15503,-0.0586 -0.27388,-0.17398 -0.14814,-0.14297 -0.2291,-0.37896 -0.0792,-0.23599 -0.0792,-0.56844 0,-0.34106 0.0724,-0.60461 0.0741,-0.26355 0.23427,-0.46854 0.15158,-0.19464 0.39101,-0.30316 0.23944,-0.11025 0.55811,-0.11025 0.10163,0 0.17053,0.009 0.0689,0.009 0.13952,0.031 v 0.32901 h -0.0172 q -0.0482,-0.0258 -0.14642,-0.0482 -0.0965,-0.0241 -0.19809,-0.0241 -0.37035,0 -0.59083,0.23254 -0.22049,0.23083 -0.25666,0.62529 0.14469,-0.0879 0.28422,-0.13264 0.14125,-0.0465 0.32556,-0.0465 0.16364,0 0.28766,0.031 0.12575,0.0293 0.25666,0.12058 0.15159,0.10507 0.22738,0.26527 0.0775,0.1602 0.0775,0.38929 z m -0.34967,0.0138 q 0,-0.16019 -0.0482,-0.26527 -0.0465,-0.10507 -0.15503,-0.18259 -0.0792,-0.0551 -0.1757,-0.0723 -0.0965,-0.0172 -0.20154,-0.0172 -0.14642,0 -0.27216,0.0344 -0.12575,0.0344 -0.25838,0.1068 -0.003,0.0379 -0.005,0.0741 -0.002,0.0344 -0.002,0.0879 0,0.27216 0.0551,0.43063 0.0568,0.15676 0.15503,0.24805 0.0792,0.0758 0.17053,0.11197 0.093,0.0344 0.20154,0.0344 0.24976,0 0.39274,-0.15159 0.14297,-0.1533 0.14297,-0.43925 z"
         style="font-size:3.52777px;fill:#ffffff;fill-opacity:1;stroke-width:0.264583"
         id="path1621" />
      <path
         d="m 270.1522,354.96605 q 0,0.69074 -0.21704,1.01458 -0.21531,0.32211 -0.67007,0.32211 -0.46164,0 -0.67523,-0.32728 -0.21188,-0.32729 -0.21188,-1.00597 0,-0.68385 0.21532,-1.00941 0.21532,-0.32728 0.67179,-0.32728 0.46165,0 0.67352,0.33245 0.21359,0.33073 0.21359,1.0008 z m -0.45302,0.78203 q 0.0603,-0.13952 0.081,-0.32728 0.0224,-0.18948 0.0224,-0.45475 0,-0.26183 -0.0224,-0.45475 -0.0207,-0.19293 -0.0827,-0.32729 -0.0603,-0.13263 -0.16536,-0.19981 -0.10335,-0.0672 -0.267,-0.0672 -0.16191,0 -0.26871,0.0672 -0.10508,0.0672 -0.16709,0.20326 -0.0586,0.12747 -0.081,0.33245 -0.0207,0.20498 -0.0207,0.44958 0,0.26872 0.0189,0.44959 0.019,0.18086 0.081,0.32383 0.0568,0.13436 0.16019,0.20499 0.10508,0.0706 0.27733,0.0706 0.16192,0 0.26872,-0.0672 0.1068,-0.0672 0.16537,-0.20326 z"
         style="font-size:3.52777px;fill:#ffffff;fill-opacity:1;stroke-width:0.264583"
         id="path1623" />
    </g>
    <g
       aria-label="
320"
       id="text1063-5-0-1-10"
       style="font-style:normal;font-weight:normal;font-size:3.52777px;line-height:1.25;font-family:sans-serif;fill:#ffffff;fill-opacity:1;stroke:none;stroke-width:0.264583">
      <path
         d="m 325.48368,355.01425 q 0.0827,0.0741 0.13608,0.18603 0.0534,0.11197 0.0534,0.28939 0,0.1757 -0.0637,0.32212 -0.0637,0.14641 -0.17915,0.25493 -0.12919,0.12058 -0.30489,0.17915 -0.17398,0.0568 -0.3824,0.0568 -0.2136,0 -0.42031,-0.0517 -0.2067,-0.05 -0.33934,-0.11024 v -0.36001 h 0.0258 q 0.14642,0.0965 0.34451,0.1602 0.19809,0.0637 0.38241,0.0637 0.10852,0 0.23082,-0.0362 0.1223,-0.0362 0.19809,-0.1068 0.0792,-0.0758 0.11713,-0.16709 0.0396,-0.0913 0.0396,-0.23082 0,-0.1378 -0.0448,-0.22737 -0.0431,-0.0913 -0.12057,-0.14297 -0.0775,-0.0534 -0.18776,-0.0723 -0.11024,-0.0207 -0.23771,-0.0207 h -0.15503 v -0.28594 h 0.12058 q 0.26182,0 0.41685,-0.10852 0.15675,-0.11025 0.15675,-0.3204 0,-0.093 -0.0396,-0.16192 -0.0396,-0.0706 -0.11025,-0.11541 -0.0741,-0.0448 -0.15847,-0.062 -0.0844,-0.0172 -0.1912,-0.0172 -0.16365,0 -0.34796,0.0586 -0.18431,0.0586 -0.34795,0.16537 h -0.0172 v -0.36002 q 0.1223,-0.0603 0.32556,-0.11024 0.20499,-0.0517 0.39619,-0.0517 0.18776,0 0.33073,0.0344 0.14297,0.0344 0.25838,0.11024 0.12402,0.0827 0.18776,0.19981 0.0637,0.11714 0.0637,0.27389 0,0.21359 -0.15158,0.37379 -0.14986,0.15847 -0.35485,0.19982 v 0.0241 q 0.0827,0.0138 0.18948,0.0586 0.1068,0.0431 0.18087,0.10852 z"
         style="font-size:3.52777px;fill:#ffffff;fill-opacity:1;stroke-width:0.264583"
         id="path1633" />
      <path
         d="m 327.95208,356.24931 h -1.73632 v -0.36001 q 0.18087,-0.15503 0.36173,-0.31006 0.18259,-0.15503 0.33935,-0.30833 0.33072,-0.3204 0.45303,-0.50815 0.1223,-0.18948 0.1223,-0.40825 0,-0.19981 -0.13264,-0.31178 -0.13091,-0.11368 -0.3669,-0.11368 -0.15675,0 -0.33934,0.0551 -0.18259,0.0551 -0.35657,0.16881 h -0.0172 v -0.36174 q 0.12231,-0.0603 0.32557,-0.11024 0.20498,-0.0499 0.39618,-0.0499 0.39446,0 0.61839,0.1912 0.22393,0.18948 0.22393,0.51504 0,0.14641 -0.0379,0.27388 -0.0362,0.12575 -0.10852,0.23944 -0.0672,0.10679 -0.15848,0.21015 -0.0896,0.10335 -0.21876,0.2291 -0.18431,0.18086 -0.38068,0.35139 -0.19637,0.16881 -0.3669,0.31351 h 1.37975 z"
         style="font-size:3.52777px;fill:#ffffff;fill-opacity:1;stroke-width:0.264583"
         id="path1635" />
      <path
         d="m 330.19139,354.96602 q 0,0.69074 -0.21704,1.01458 -0.21532,0.32211 -0.67007,0.32211 -0.46164,0 -0.67524,-0.32728 -0.21187,-0.32729 -0.21187,-1.00597 0,-0.68385 0.21532,-1.00941 0.21532,-0.32728 0.67179,-0.32728 0.46164,0 0.67352,0.33245 0.21359,0.33073 0.21359,1.0008 z m -0.45303,0.78203 q 0.0603,-0.13952 0.081,-0.32728 0.0224,-0.18948 0.0224,-0.45475 0,-0.26183 -0.0224,-0.45475 -0.0207,-0.19293 -0.0827,-0.32729 -0.0603,-0.13263 -0.16536,-0.19981 -0.10336,-0.0672 -0.267,-0.0672 -0.16192,0 -0.26871,0.0672 -0.10508,0.0672 -0.16709,0.20326 -0.0586,0.12747 -0.081,0.33245 -0.0207,0.20498 -0.0207,0.44958 0,0.26872 0.019,0.44959 0.0189,0.18086 0.081,0.32383 0.0568,0.13436 0.16019,0.20499 0.10508,0.0706 0.27733,0.0706 0.16192,0 0.26872,-0.0672 0.1068,-0.0672 0.16536,-0.20326 z"
         style="font-size:3.52777px;fill:#ffffff;fill-opacity:1;stroke-width:0.264583"
         id="path1637" />
    </g>
    <g
       aria-label="
310"
       id="text1063-5-0-1-107"
       style="font-style:normal;font-weight:normal;font-size:3.52777px;line-height:1.25;font-family:sans-serif;fill:#ffffff;fill-opacity:1;stroke:none;stroke-width:0.264583">
      <path
         d="m 315.39637,355.0379 q 0.0827,0.0741 0.13608,0.18603 0.0534,0.11197 0.0534,0.28939 0,0.1757 -0.0637,0.32212 -0.0637,0.14641 -0.17914,0.25493 -0.12919,0.12058 -0.30489,0.17915 -0.17398,0.0568 -0.38241,0.0568 -0.21359,0 -0.4203,-0.0517 -0.2067,-0.05 -0.33934,-0.11025 v -0.36001 h 0.0258 q 0.14642,0.0965 0.34451,0.1602 0.19809,0.0637 0.3824,0.0637 0.10852,0 0.23083,-0.0362 0.1223,-0.0362 0.19809,-0.1068 0.0792,-0.0758 0.11713,-0.16709 0.0396,-0.0913 0.0396,-0.23082 0,-0.1378 -0.0448,-0.22737 -0.0431,-0.0913 -0.12057,-0.14297 -0.0775,-0.0534 -0.18776,-0.0724 -0.11024,-0.0207 -0.23771,-0.0207 h -0.15503 v -0.28594 h 0.12058 q 0.26182,0 0.41685,-0.10852 0.15675,-0.11025 0.15675,-0.3204 0,-0.093 -0.0396,-0.16192 -0.0396,-0.0706 -0.11024,-0.11541 -0.0741,-0.0448 -0.15847,-0.062 -0.0844,-0.0172 -0.1912,-0.0172 -0.16365,0 -0.34796,0.0586 -0.18431,0.0586 -0.34795,0.16537 h -0.0172 v -0.36001 q 0.1223,-0.0603 0.32556,-0.11025 0.20499,-0.0517 0.39619,-0.0517 0.18776,0 0.33073,0.0344 0.14297,0.0344 0.25838,0.11024 0.12402,0.0827 0.18776,0.19982 0.0637,0.11713 0.0637,0.27388 0,0.2136 -0.15158,0.37379 -0.14987,0.15848 -0.35485,0.19982 v 0.0241 q 0.0827,0.0138 0.18948,0.0586 0.1068,0.0431 0.18087,0.10852 z"
         style="font-size:3.52777px;fill:#ffffff;fill-opacity:1;stroke-width:0.264583"
         id="path1626" />
      <path
         d="m 317.71836,356.27296 h -1.38837 v -0.26182 h 0.53399 v -1.7191 h -0.53399 v -0.23427 q 0.10852,0 0.23254,-0.0172 0.12402,-0.019 0.18776,-0.0534 0.0792,-0.0431 0.12402,-0.10852 0.0465,-0.0672 0.0534,-0.17915 h 0.26699 v 2.31166 h 0.52366 z"
         style="font-size:3.52777px;fill:#ffffff;fill-opacity:1;stroke-width:0.264583"
         id="path1628" />
      <path
         d="m 320.10408,354.98967 q 0,0.69074 -0.21704,1.01458 -0.21532,0.32211 -0.67007,0.32211 -0.46164,0 -0.67524,-0.32728 -0.21187,-0.32728 -0.21187,-1.00597 0,-0.68385 0.21532,-1.00941 0.21532,-0.32728 0.67179,-0.32728 0.46164,0 0.67352,0.33245 0.21359,0.33073 0.21359,1.0008 z m -0.45303,0.78203 q 0.0603,-0.13952 0.081,-0.32728 0.0224,-0.18948 0.0224,-0.45475 0,-0.26183 -0.0224,-0.45475 -0.0207,-0.19293 -0.0827,-0.32729 -0.0603,-0.13263 -0.16536,-0.19981 -0.10336,-0.0672 -0.267,-0.0672 -0.16192,0 -0.26872,0.0672 -0.10507,0.0672 -0.16708,0.20326 -0.0586,0.12747 -0.081,0.33245 -0.0207,0.20498 -0.0207,0.44958 0,0.26872 0.019,0.44959 0.0189,0.18086 0.081,0.32384 0.0568,0.13435 0.16019,0.20498 0.10508,0.0706 0.27733,0.0706 0.16192,0 0.26872,-0.0672 0.1068,-0.0672 0.16536,-0.20326 z"
         style="font-size:3.52777px;fill:#ffffff;fill-opacity:1;stroke-width:0.264583"
         id="path1630" />
    </g>
    <g
       aria-label="[0,0]"
       id="text1063-5-0-1-0-0"
       style="font-style:normal;font-weight:normal;font-size:3.52777px;line-height:1.25;font-family:sans-serif;fill:#ffffff;fill-opacity:1;stroke:none;stroke-width:0.264583">
      <path
         d="M 3.9233512,356.8371 H 3.0276283 v -3.35551 h 0.8957229 v 0.24632 H 3.327351 v 2.86287 h 0.5960002 z"
         style="font-size:3.52777px;fill:#ffffff;fill-opacity:1;stroke-width:0.264583"
         id="path1577" />
      <path
         d="m 6.228115,354.87857 q 0,0.69074 -0.2170405,1.01458 -0.215318,0.32211 -0.6700696,0.32211 -0.4616418,0 -0.6752372,-0.32728 -0.2118729,-0.32728 -0.2118729,-1.00596 0,-0.68385 0.215318,-1.00942 0.215318,-0.32728 0.6717921,-0.32728 0.4616418,0 0.6735147,0.33245 0.2135954,0.33073 0.2135954,1.0008 z m -0.453029,0.78203 q 0.060289,-0.13952 0.080959,-0.32728 0.022393,-0.18948 0.022393,-0.45475 0,-0.26183 -0.022393,-0.45475 -0.02067,-0.19293 -0.082682,-0.32728 -0.060289,-0.13264 -0.1653642,-0.19982 -0.1033526,-0.0672 -0.2669943,-0.0672 -0.1619191,0 -0.2687169,0.0672 -0.1050751,0.0672 -0.1670867,0.20326 -0.058566,0.12747 -0.08096,0.33245 -0.02067,0.20498 -0.02067,0.44959 0,0.26871 0.018948,0.44958 0.018948,0.18087 0.080959,0.32384 0.056844,0.13436 0.1601966,0.20498 0.1050752,0.0706 0.2773296,0.0706 0.1619191,0 0.2687169,-0.0672 0.1067977,-0.0672 0.1653642,-0.20327 z"
         style="font-size:3.52777px;fill:#ffffff;fill-opacity:1;stroke-width:0.264583"
         id="path1579" />
      <path
         d="m 7.4511213,355.67094 -0.4857574,1.12827 H 6.7138725 l 0.2997227,-1.12827 z"
         style="font-size:3.52777px;fill:#ffffff;fill-opacity:1;stroke-width:0.264583"
         id="path1581" />
      <path
         d="m 9.7541628,354.87857 q 0,0.69074 -0.2170406,1.01458 -0.215318,0.32211 -0.6700696,0.32211 -0.4616418,0 -0.6752372,-0.32728 -0.2118729,-0.32728 -0.2118729,-1.00596 0,-0.68385 0.215318,-1.00942 0.215318,-0.32728 0.6717921,-0.32728 0.4616418,0 0.6735147,0.33245 0.2135955,0.33073 0.2135955,1.0008 z m -0.4530291,0.78203 q 0.060289,-0.13952 0.08096,-0.32728 0.022393,-0.18948 0.022393,-0.45475 0,-0.26183 -0.022393,-0.45475 -0.020671,-0.19293 -0.082682,-0.32728 -0.060289,-0.13264 -0.1653642,-0.19982 -0.1033526,-0.0672 -0.2669943,-0.0672 -0.1619191,0 -0.2687168,0.0672 -0.1050752,0.0672 -0.1670868,0.20326 -0.058566,0.12747 -0.08096,0.33245 -0.02067,0.20498 -0.02067,0.44959 0,0.26871 0.018948,0.44958 0.018948,0.18087 0.08096,0.32384 0.056844,0.13436 0.1601966,0.20498 0.1050752,0.0706 0.2773296,0.0706 0.1619191,0 0.2687169,-0.0672 0.1067977,-0.0672 0.1653642,-0.20327 z"
         style="font-size:3.52777px;fill:#ffffff;fill-opacity:1;stroke-width:0.264583"
         id="path1583" />
      <path
         d="m 11.176984,356.8371 h -0.895723 v -0.24632 h 0.596 v -2.86287 h -0.596 v -0.24632 h 0.895723 z"
         style="font-size:3.52777px;fill:#ffffff;fill-opacity:1;stroke-width:0.264583"
         id="path1585" />
    </g>
    <path
       id="path24"
       d="m 263.21164,337.68513 c 0.002,-1.16876 0.0188,-3.05571 0.0362,-4.19322 l 0.0317,-2.06819 0.14795,-0.43182 c 0.34808,-1.01595 1.00621,-1.77455 1.9469,-2.24411 1.08765,-0.54292 2.47976,-0.51097 3.53148,0.0811 0.91623,0.51575 1.60811,1.43488 1.85066,2.45851 0.0817,0.34483 0.0937,0.50548 0.0763,1.02273 -0.018,0.53754 -0.0385,0.66643 -0.16492,1.03932 -0.4289,1.26507 -1.43216,2.20276 -2.71076,2.5336 -0.47711,0.12346 -1.38738,0.11546 -1.84804,-0.0163 -0.45847,-0.13107 -0.80933,-0.28918 -1.13494,-0.51143 -0.14631,-0.0999 -0.27647,-0.18159 -0.28925,-0.18159 -0.0128,0 -0.0233,1.04319 -0.0233,2.3182 v 2.3182 h -0.72727 -0.72728 z m 4.36702,-3.21363 c 1.29236,-0.27391 2.11301,-1.58733 1.78432,-2.85577 -0.20729,-0.79997 -0.77049,-1.40779 -1.55284,-1.67587 -0.38842,-0.13309 -1.08053,-0.14481 -1.46665,-0.0248 -0.98203,0.30511 -1.63822,1.21669 -1.6357,2.2723 0.004,1.52311 1.36208,2.60395 2.87087,2.28418 z m -9.44878,1.51979 c -0.85514,-0.11774 -1.56347,-0.45751 -2.1654,-1.03867 -1.08488,-1.04743 -1.46176,-2.5895 -0.9825,-4.02001 0.20475,-0.6111 0.44701,-0.99106 0.94758,-1.48617 0.70132,-0.69366 1.44658,-1.02618 2.41388,-1.07701 0.84825,-0.0446 1.60292,0.1435 2.22925,0.55556 l 0.36167,0.23795 v -0.29625 -0.29626 l 0.21089,0.0289 c 0.11599,0.0159 0.4535,0.0289 0.75001,0.0289 h 0.53911 v 3.65912 3.65911 h -0.75 -0.75001 v -0.38232 -0.38233 l -0.30682,0.20594 c -0.39328,0.26398 -0.68701,0.39278 -1.1568,0.50725 -0.45945,0.11196 -0.96395,0.14818 -1.34086,0.0963 z m 1.21574,-1.58204 c 0.42578,-0.14847 0.64362,-0.28198 0.93425,-0.57261 0.73206,-0.73205 0.88075,-1.85056 0.37319,-2.80729 -0.3666,-0.69102 -1.25823,-1.21823 -2.05962,-1.21781 -0.32442,1.3e-4 -0.82084,0.11454 -1.11285,0.25642 -0.31191,0.15153 -0.81226,0.64216 -0.96769,0.94889 -0.36823,0.72668 -0.36842,1.5867 -4.6e-4,2.31275 0.25453,0.50229 0.92655,1.0056 1.52479,1.142 0.36457,0.0831 0.97465,0.054 1.30844,-0.0623 z m 28.31895,1.58115 c -1.59626,-0.21978 -2.87943,-1.39476 -3.25826,-2.98354 -0.11003,-0.46144 -0.0994,-1.25729 0.0233,-1.74082 0.31382,-1.23695 1.22314,-2.25196 2.40218,-2.68135 1.04497,-0.38058 2.27956,-0.27571 3.2158,0.27316 0.38523,0.22584 0.64332,0.43287 0.98869,0.79313 l 0.26146,0.27273 4.6e-4,-0.67046 4.7e-4,-0.67046 h 0.34091 0.34091 v 3.70457 3.70457 h -0.34092 -0.34091 l -8e-4,-0.78409 -8e-4,-0.7841 -0.2148,0.2471 c -0.30962,0.35618 -0.8241,0.74895 -1.25234,0.95608 -0.63306,0.3062 -1.51029,0.45353 -2.16428,0.36348 z m 1.44428,-0.82845 c 1.70564,-0.60438 2.5922,-2.47382 1.96258,-4.1384 -0.41929,-1.10857 -1.53986,-1.90535 -2.77326,-1.97192 -0.57078,-0.0308 -0.99134,0.0596 -1.54206,0.33151 -0.7277,0.35928 -1.35846,1.0827 -1.60089,1.83603 -0.13473,0.41865 -0.16473,1.15673 -0.0652,1.60409 0.25347,1.1393 1.21301,2.13708 2.3238,2.41643 0.43556,0.10953 1.2752,0.071 1.69502,-0.0777 z m 17.59838,0.83756 c -0.0616,-0.0206 -0.06,-3.98137 0.002,-4.3615 0.28333,-1.74597 1.70617,-3.12714 3.36389,-3.26539 l 0.3618,-0.0301 4.7e-4,0.17699 c 4.6e-4,0.0974 0.0131,0.2537 0.0287,0.34744 l 0.0282,0.17046 -0.1764,7e-4 c -0.3156,0.002 -0.8056,0.13019 -1.14321,0.30047 -0.64558,0.32559 -1.34736,1.04817 -1.55801,1.60419 -0.21022,0.55488 -0.2252,0.75188 -0.2252,2.96119 0,1.14837 -0.0153,2.08888 -0.0341,2.09002 -0.23232,0.0141 -0.61252,0.0174 -0.64788,0.006 z m -65.38663,-0.0745 c -0.72911,-0.11627 -1.93183,-0.51969 -1.93183,-0.64798 0,-0.0924 0.40335,-1.01731 0.48309,-1.10777 0.0584,-0.0663 0.0965,-0.0612 0.42721,0.0558 0.47779,0.16907 1.46869,0.31205 2.1579,0.31136 0.89459,-8e-4 1.48122,-0.17742 1.81413,-0.54591 0.18732,-0.20734 0.20662,-0.35526 0.0712,-0.54551 -0.19095,-0.26816 -0.59458,-0.39126 -1.86255,-0.56808 -1.26288,-0.17609 -2.10326,-0.50094 -2.66299,-1.02937 -0.41941,-0.39596 -0.60064,-0.90718 -0.51452,-1.45137 0.14735,-0.93096 0.89044,-1.59767 2.15516,-1.93361 0.4103,-0.10899 0.53537,-0.12094 1.29508,-0.1238 0.62759,-0.002 0.95622,0.0179 1.29546,0.0796 0.72272,0.1315 1.6591,0.45444 1.6591,0.57219 0,0.11155 -0.474,1.18328 -0.52333,1.18328 -0.0311,0 -0.13237,-0.0317 -0.22512,-0.0704 -0.27817,-0.11622 -0.96368,-0.24286 -1.60911,-0.29725 -0.6642,-0.0559 -1.38638,-0.008 -1.81968,0.12055 -0.45859,0.13619 -0.69005,0.47798 -0.53141,0.78475 0.17627,0.34088 0.6725,0.53774 1.8576,0.73697 1.0646,0.17897 1.39166,0.25428 1.76616,0.40668 0.4398,0.17897 0.7143,0.35103 0.95611,0.5993 0.70179,0.7205 0.64837,1.78391 -0.12841,2.55653 -0.4063,0.40411 -1.17879,0.77644 -1.89455,0.91312 -0.43896,0.0838 -1.71184,0.0844 -2.23465,8e-4 z m 5.31825,-1.85348 c 0.0314,-2.45579 0.0338,-2.48813 0.22578,-3.06186 0.49245,-1.47167 1.4797,-2.31783 3.01879,-2.58737 1.92387,-0.33693 3.6945,0.79744 4.253,2.72472 l 0.11608,0.40057 v 2.22221 2.2222 h -0.70455 -0.70455 l -8e-4,-2.07956 c -8e-4,-2.03186 -0.003,-2.0864 -0.1028,-2.37765 -0.351,-1.02959 -1.28295,-1.72465 -2.31245,-1.72465 -0.64765,0 -1.07187,0.16842 -1.52837,0.60677 -0.40568,0.38955 -0.61451,0.72199 -0.73572,1.17118 -0.10001,0.37063 -0.10119,0.40796 -0.0761,2.39021 l 0.0255,2.0137 h -0.74901 -0.74901 z m 25.506,-0.59092 c 0.0267,-2.64796 0.0386,-2.80394 0.25249,-3.30341 0.14047,-0.32803 0.47636,-0.79852 0.74599,-1.04494 0.52672,-0.4814 1.14947,-0.7254 1.95032,-0.76416 0.59187,-0.0286 1.01607,0.0654 1.54305,0.34217 0.37695,0.19797 0.88401,0.65855 1.10675,1.00531 0.13369,0.20814 0.16607,0.23523 0.20871,0.17465 0.49457,-0.70247 0.79097,-0.97352 1.3521,-1.23653 1.62951,-0.76376 3.56573,0.005 4.13362,1.64119 0.21543,0.62068 0.22391,0.74522 0.22391,3.29097 v 2.40614 h -0.36364 -0.36365 v -2.49177 c 0,-2.72222 0.002,-2.69047 -0.27305,-3.23554 -0.4439,-0.87751 -1.52675,-1.3772 -2.52773,-1.16645 -0.8277,0.17427 -1.42131,0.70062 -1.74837,1.55028 l -0.12346,0.32071 -0.0174,2.46356 c -0.01,1.35495 -0.0338,2.47996 -0.0539,2.50001 -0.02,0.02 -0.17281,0.0365 -0.3395,0.0365 h -0.30305 l -0.0228,-2.54548 c -0.0222,-2.48487 -0.0251,-2.55178 -0.12288,-2.81058 -0.1531,-0.40527 -0.30165,-0.62912 -0.60212,-0.90731 -0.75418,-0.69823 -1.81215,-0.86005 -2.69635,-0.41241 -0.29403,0.14886 -0.83394,0.68818 -0.99842,0.99732 -0.25692,0.4829 -0.26208,0.54667 -0.26208,3.23345 v 2.46774 h -0.36199 -0.36198 z m 20.97154,-3.23865 v -5.75004 h 0.34091 0.34091 v 3.84094 c 0,2.11251 0.0154,3.84028 0.0341,3.83948 0.0188,-7e-4 0.90341,-0.85949 1.96591,-1.9082 l 1.93183,-1.90673 0.50001,0.002 0.50001,0.002 -1.93184,1.90766 -1.93183,1.90765 1.90701,1.87855 1.90701,1.87855 -0.44192,0.0325 -0.44193,0.0325 -0.2378,-0.20562 c -0.13079,-0.11309 -0.89217,-0.86058 -1.69195,-1.6611 l -1.45415,-1.45547 -0.2845,0.28197 -0.2845,0.28198 v 0.6604 c 0,0.36323 -0.0135,0.98257 -0.0298,1.37632 l -0.0297,0.71592 h -0.3338 -0.3338 v -5.75004 z m 8.34096,5.68441 c -0.43671,-0.10244 -0.79492,-0.24188 -1.12485,-0.43789 -0.85752,-0.50944 -1.39832,-1.1812 -1.72135,-2.13817 -0.27023,-0.80055 -0.23011,-1.81633 0.10342,-2.61835 0.44833,-1.07806 1.44637,-1.96129 2.56096,-2.26632 0.40391,-0.11055 1.23792,-0.13546 1.68821,-0.0504 0.87149,0.16456 1.67835,0.63549 2.2278,1.30029 0.23106,0.27957 0.56033,0.84216 0.51488,0.87973 -0.0119,0.01 -0.31836,0.18783 -0.68086,0.39542 -0.62801,0.35964 -2.15524,1.2388 -4.26139,2.45312 -0.55893,0.32224 -0.96591,0.58472 -0.96591,0.62294 0,0.0363 0.14829,0.21356 0.32954,0.39386 0.56464,0.56166 1.21856,0.82025 2.07956,0.82237 1.24756,0.003 2.2854,-0.61448 2.78745,-1.6586 0.11314,-0.23529 0.23931,-0.55053 0.28039,-0.70053 l 0.0747,-0.27273 0.36575,-0.19289 0.36576,-0.19288 -0.0307,0.26107 c -0.0558,0.47446 -0.16642,0.84632 -0.38884,1.30652 -0.47499,0.98286 -1.33503,1.71112 -2.3979,2.0305 -0.40341,0.12121 -1.40892,0.15627 -1.80664,0.063 z m -0.99491,-3.12269 c 0.57221,-0.32856 1.59264,-0.91522 2.26764,-1.30368 0.67501,-0.38848 1.39858,-0.80333 1.60794,-0.92191 0.20936,-0.11858 0.40014,-0.23509 0.42395,-0.25891 0.0555,-0.0555 -0.56911,-0.61026 -0.94167,-0.83658 -0.86939,-0.52813 -2.01239,-0.58872 -2.91303,-0.15443 -0.80003,0.38577 -1.38778,1.07683 -1.66316,1.95547 -0.1148,0.36633 -0.1565,1.07541 -0.0849,1.44421 0.0514,0.26466 0.19936,0.67322 0.24386,0.67322 0.0105,0 0.48718,-0.26882 1.05938,-0.59739 z"
       style="fill:#ffffff;fill-opacity:1;stroke-width:0.0454548" />
    <path
       style="fill:none;stroke:#ffffff;stroke-width:0.264583px;stroke-linecap:butt;stroke-linejoin:miter;stroke-opacity:1"
       d="M 311.45239,332 H 327"
       id="path1335"
       sodipodi:nodetypes="cc" />
    <path
       style="fill:none;stroke:#ffffff;stroke-width:0.264583px;stroke-linecap:butt;stroke-linejoin:miter;stroke-opacity:1"
       d="M 267,337.34373 267,352"
       id="path1337"
       sodipodi:nodetypes="cc" />
    <path
       sodipodi:type="star"
       style="fill:none;fill-opacity:1;stroke:#ffff00;stroke-width:0.264999;stroke-linecap:round;stroke-linejoin:miter;stroke-miterlimit:4;stroke-dasharray:none;stroke-opacity:1"
       id="path1349"
       sodipodi:sides="3"
       sodipodi:cx="39.555887"
       sodipodi:cy="333.11758"
       sodipodi:r1="12.85258"
       sodipodi:r2="6.42629"
       sodipodi:arg1="2.6179939"
       sodipodi:arg2="3.6651914"
       inkscape:flatsided="true"
       inkscape:rounded="0"
       inkscape:randomized="0"
       d="M 28.425224,339.54387 39.555886,320.265 50.686546,339.54387 Z"
       inkscape:transform-center-y="-3.213149" />
    <path
       sodipodi:type="star"
       style="fill:none;fill-opacity:1;stroke:#ffff00;stroke-width:0.264999;stroke-linecap:round;stroke-linejoin:miter;stroke-miterlimit:4;stroke-dasharray:none;stroke-opacity:1"
       id="path1349-1"
       sodipodi:sides="3"
       sodipodi:cx="74.701828"
       sodipodi:cy="333.11758"
       sodipodi:r1="12.85258"
       sodipodi:r2="6.4262905"
       sodipodi:arg1="2.6179939"
       sodipodi:arg2="3.6651914"
       inkscape:flatsided="true"
       inkscape:rounded="0"
       inkscape:randomized="0"
       d="M 63.571167,339.54387 74.701828,320.265 85.832489,339.54387 Z"
       inkscape:transform-center-y="-3.213149" />
    <path
       sodipodi:type="star"
       style="fill:none;fill-opacity:1;stroke:#ffff00;stroke-width:0.264999;stroke-linecap:round;stroke-linejoin:miter;stroke-miterlimit:4;stroke-dasharray:none;stroke-opacity:1"
       id="path1349-1-3"
       sodipodi:sides="3"
       sodipodi:cx="111.45139"
       sodipodi:cy="333.11758"
       sodipodi:r1="12.85258"
       sodipodi:r2="6.4262905"
       sodipodi:arg1="2.6179939"
       sodipodi:arg2="3.6651914"
       inkscape:flatsided="true"
       inkscape:rounded="0"
       inkscape:randomized="0"
       d="m 100.32073,339.54387 11.13066,-19.27887 11.13066,19.27887 z"
       inkscape:transform-center-y="-3.213149" />
    <path
       style="fill:none;stroke:#ffff00;stroke-width:0.519;stroke-linecap:round;stroke-linejoin:miter;stroke-opacity:1;stroke-miterlimit:4;stroke-dasharray:none"
       d="m 73.421873,328.3668 c -0.787497,1.08674 -1.574943,2.17342 -1.578727,3.17361 -0.0038,1.00018 0.775772,1.91361 0.996114,2.61039 0.220342,0.69679 -0.118249,1.17711 -0.456821,1.65741"
       id="path1396"
       inkscape:path-effect="#path-effect1398"
       inkscape:original-d="m 73.421873,328.3668 c -0.787186,1.08697 -1.574636,2.17364 -2.362351,3.26004 0.779857,0.91374 1.559417,1.82716 2.338729,2.74034 -0.338347,0.48062 -0.676945,0.96094 -1.015812,1.44103" />
    <path
       style="fill:none;stroke:#ffff00;stroke-width:0.519;stroke-linecap:round;stroke-linejoin:miter;stroke-opacity:1;stroke-miterlimit:4;stroke-dasharray:none"
       d="m 74.979782,328.37933 c -0.787497,1.08674 -1.574943,2.17342 -1.578727,3.17361 -0.0038,1.00018 0.775772,1.91361 0.996114,2.61039 0.220342,0.69679 -0.118249,1.17711 -0.456821,1.65741"
       id="path1396-6"
       inkscape:path-effect="#path-effect1417"
       inkscape:original-d="m 74.979782,328.37933 c -0.787186,1.08697 -1.574636,2.17364 -2.362351,3.26004 0.779857,0.91374 1.559417,1.82716 2.338729,2.74034 -0.338347,0.48062 -0.676945,0.96094 -1.015812,1.44103" />
    <path
       style="fill:none;stroke:#ffff00;stroke-width:0.519;stroke-linecap:round;stroke-linejoin:miter;stroke-opacity:1;stroke-miterlimit:4;stroke-dasharray:none"
       d="m 76.798792,328.3557 c -0.787497,1.08674 -1.574943,2.17342 -1.578727,3.17361 -0.0038,1.00018 0.775772,1.91361 0.996114,2.61039 0.220342,0.69679 -0.118249,1.17711 -0.456821,1.65741"
       id="path1396-7"
       inkscape:path-effect="#path-effect1426"
       inkscape:original-d="m 76.798792,328.3557 c -0.787186,1.08697 -1.574636,2.17364 -2.362351,3.26004 0.779857,0.91374 1.559417,1.82716 2.338729,2.74034 -0.338347,0.48062 -0.676945,0.96094 -1.015812,1.44103" />
    <path
       style="fill:none;stroke:#ffff00;stroke-width:0.519;stroke-linecap:round;stroke-linejoin:miter;stroke-miterlimit:4;stroke-dasharray:none;stroke-opacity:1"
       d="m 69.547617,337.15476 h 9.921878"
       id="path1428" />
    <path
       style="fill:none;stroke:#ffff00;stroke-width:0.381039px;stroke-linecap:butt;stroke-linejoin:miter;stroke-opacity:1"
       d="m 110.57349,331.42987 c -0.25708,0.54252 -0.51406,1.08483 -0.80255,1.01884 -0.28849,-0.066 -0.60879,-0.74055 -0.92903,-1.06604 -0.32024,-0.32549 -0.64052,-0.30142 -0.86492,-0.19296 -0.22441,0.10847 -0.35253,0.30122 -0.27751,0.46993 0.075,0.16871 0.35257,0.31325 0.54994,0.54826 0.19737,0.23502 0.31481,0.56027 0.45355,1.24687 0.13874,0.68661 0.29888,1.73457 0.97701,2.32462 0.67813,0.59005 1.87387,0.72256 2.65034,0.4475 0.77648,-0.27506 1.13412,-0.95772 1.49185,-1.64057"
       id="path1434"
       inkscape:path-effect="#path-effect1436"
       inkscape:original-d="m 110.57349,331.42987 c -0.25663,0.54274 -0.51361,1.08504 -0.77097,1.62698 -0.31994,-0.67418 -0.64022,-1.34876 -0.96087,-2.02371 -0.31994,0.0246 -0.64023,0.0485 -0.96088,0.0722 -0.12772,0.19315 -0.25587,0.38588 -0.38435,0.57821 0.27796,0.14502 0.55554,0.28952 0.83276,0.43365 0.11782,0.32564 0.23525,0.6509 0.35232,0.97573 0.16052,1.0484 0.32065,2.09636 0.48043,3.14395 1.19614,0.13293 2.39188,0.26544 3.58727,0.39754 0.35805,-0.68235 0.71568,-1.36502 1.07297,-2.0481"
       sodipodi:nodetypes="cccccccccc" />
    <path
       style="fill:none;stroke:#ffff00;stroke-width:0.381039px;stroke-linecap:butt;stroke-linejoin:miter;stroke-opacity:1"
       d="m 114.0768,334.02711 c 0.41418,-0.62205 0.82841,-1.24419 0.98775,-1.69678 0.15933,-0.45258 0.0635,-0.73598 -0.10599,-0.83187 -0.16949,-0.0959 -0.41261,-0.004 -0.67045,0.2814 -0.25783,0.28515 -0.53008,0.76306 -0.80224,1.24084"
       id="path1442"
       inkscape:path-effect="#path-effect1444"
       inkscape:original-d="m 114.0768,334.02711 c 0.41461,-0.62176 0.82885,-1.2439 1.24274,-1.86647 -0.0954,-0.28298 -0.19129,-0.56635 -0.28747,-0.85016 -0.24281,0.0926 -0.48594,0.1847 -0.72946,0.27645 -0.27189,0.47833 -0.54413,0.95625 -0.81674,1.43377"
       sodipodi:nodetypes="ccccc" />
    <path
       style="fill:none;stroke:#ffff00;stroke-width:0.381039px;stroke-linecap:butt;stroke-linejoin:miter;stroke-opacity:1"
       d="m 113.33454,333.29896 c 0.55428,-0.91503 1.10858,-1.83008 1.25873,-2.35771 0.15015,-0.52762 -0.10443,-0.66764 -0.30781,-0.6474 -0.20338,0.0202 -0.35497,0.2009 -0.60522,0.61986 -0.25025,0.41896 -0.59908,1.07603 -0.94785,1.73299"
       id="path1442-1"
       inkscape:path-effect="#path-effect1463"
       inkscape:original-d="m 113.33454,333.29896 c 0.55471,-0.91477 1.10902,-1.82982 1.66311,-2.74551 -0.25431,-0.13967 -0.5089,-0.27967 -0.7639,-0.42013 -0.15125,0.18111 -0.30285,0.36178 -0.45482,0.54206 -0.3485,0.65752 -0.69732,1.3146 -1.04654,1.97132"
       sodipodi:nodetypes="ccccc" />
    <path
       style="fill:none;stroke:#ffff00;stroke-width:0.418961px;stroke-linecap:butt;stroke-linejoin:miter;stroke-opacity:1"
       d="m 112.73235,332.6467 c 0.62525,-1.11402 1.25062,-2.22826 1.40638,-2.88753 0.15576,-0.65928 -0.15853,-0.86346 -0.43392,-0.79635 -0.27538,0.0671 -0.51097,0.40556 -0.7897,0.92215 -0.27874,0.51659 -0.60042,1.21091 -0.92199,1.90499"
       id="path1442-4"
       inkscape:path-effect="#path-effect1472"
       inkscape:original-d="m 112.73235,332.6467 c 0.6257,-1.11377 1.25106,-2.22801 1.87616,-3.34281 -0.3141,-0.20387 -0.62839,-0.40806 -0.94325,-0.61277 -0.2354,0.3391 -0.47098,0.67757 -0.70706,1.0158 -0.32138,0.69485 -0.64306,1.38917 -0.96508,2.08304"
       sodipodi:nodetypes="ccccc" />
    <path
       style="fill:none;stroke:#ffff00;stroke-width:0.381039px;stroke-linecap:butt;stroke-linejoin:miter;stroke-opacity:1"
       d="m 111.99305,331.78996 c 0.38007,-0.8225 0.76014,-1.64501 0.88342,-2.18048 0.12329,-0.53547 -0.0106,-0.78365 -0.21045,-0.85252 -0.19984,-0.0689 -0.46546,0.0422 -0.75557,0.41872 -0.2901,0.37652 -0.60429,1.01797 -0.91859,1.65965"
       id="path1487"
       inkscape:path-effect="#path-effect1489"
       inkscape:original-d="m 111.99305,331.78996 c 0.38052,-0.82229 0.76059,-1.6448 1.14045,-2.46805 -0.13369,-0.24793 -0.26753,-0.49614 -0.40184,-0.74483 -0.26527,0.11152 -0.5309,0.22255 -0.79691,0.33322 -0.31395,0.64212 -0.94289,1.92503 -0.94289,1.92503"
       sodipodi:nodetypes="ccccc" />
    <path
       style="fill:none;stroke:#ffff00;stroke-width:0.441174;stroke-linecap:round;stroke-linejoin:miter;stroke-miterlimit:4;stroke-dasharray:none;stroke-opacity:1"
       d="m 114.80897,335.13392 -4.8531,-4.87648 v 0"
       id="path1491" />
    <g
       aria-label="!"
       id="text1642"
       style="font-style:normal;font-variant:normal;font-weight:normal;font-stretch:normal;font-size:15.875px;line-height:1.25;font-family:Amiri;-inkscape-font-specification:Amiri;fill:#ffff00;fill-opacity:1;stroke:none;stroke-width:0.265;stroke-miterlimit:4;stroke-dasharray:none">
      <path
         d="m 38.868313,336.48727 q -0.255799,-0.26355 -0.255799,-0.61236 0,-0.34882 0.255799,-0.58911 0.26355,-0.24805 0.612366,-0.24805 0.348815,0 0.589111,0.24805 0.248047,0.24029 0.248047,0.58911 0,0.34881 -0.248047,0.61236 -0.240296,0.2558 -0.589111,0.2558 -0.348816,0 -0.612366,-0.2558 z m 0.116272,-10.20868 q 0.217041,-0.27905 0.558105,-0.27905 0.341065,0 0.511597,0.27905 0.170532,0.27906 0.170532,0.62012 0,1.65882 -0.542602,7.00733 -0.09302,0.18603 -0.248047,0.20153 -0.147278,-0.062 -0.201538,-0.17053 -0.465088,-5.34851 -0.465088,-7.03833 0,-0.34106 0.217041,-0.62012 z"
         style="font-style:normal;font-variant:normal;font-weight:normal;font-stretch:normal;font-size:15.875px;font-family:Amiri;-inkscape-font-specification:Amiri;fill:#ffff00;fill-opacity:1;stroke-width:0.265;stroke-miterlimit:4;stroke-dasharray:none"
         id="path1644" />
    </g>
  </g>
</svg>
